<?xml version="1.0" encoding="utf-8"?>
<!-- Generator: Adobe Illustrator 25.3.1, SVG Export Plug-In . SVG Version: 6.00 Build 0)  -->
<svg version="1.1" id="Layer_1" xmlns="http://www.w3.org/2000/svg" xmlns:xlink="http://www.w3.org/1999/xlink" x="0px" y="0px"
	 viewBox="0 0 410 275" style="enable-background:new 0 0 410 275;" xml:space="preserve">
<style type="text/css">
	.st0{fill:#FFFFFF;}
	.st1{fill:#FFFFFF;stroke:#000000;stroke-miterlimit:10;}
	.st2{fill:none;stroke:#000000;stroke-miterlimit:10;stroke-dasharray:6.0034,6.0034;}
	.st3{font-family:'MyriadPro-Regular';}
	.st4{font-size:18px;}
	.st5{fill:#FFFFFF;stroke:#000000;stroke-width:2;stroke-miterlimit:10;}
	.st6{fill:none;stroke:#000000;stroke-miterlimit:10;stroke-dasharray:6,6;}
	.st7{fill:none;stroke:#000000;stroke-miterlimit:10;}
	.st8{font-size:14px;}
</style>
<g>
	<path class="st0" d="M10,274.5c-5.24,0-9.5-4.26-9.5-9.5V10c0-5.24,4.26-9.5,9.5-9.5h390c5.24,0,9.5,4.26,9.5,9.5v255
		c0,5.24-4.26,9.5-9.5,9.5H10z"/>
	<path d="M400,1c4.96,0,9,4.04,9,9v255c0,4.96-4.04,9-9,9H10c-4.96,0-9-4.04-9-9V10c0-4.96,4.04-9,9-9H400 M400,0H10
		C4.48,0,0,4.48,0,10v255c0,5.52,4.48,10,10,10h390c5.52,0,10-4.48,10-10V10C410,4.48,405.52,0,400,0L400,0z"/>
</g>
<g>
	<g>
		<g>
			<path class="st1" d="M152.5,187.69h-130c-5.52,0-10-4.48-10-10v-70.38c0-5.52,4.48-10,10-10h130c5.52,0,10,4.48,10,10v70.38
				C162.5,183.22,158.02,187.69,152.5,187.69z"/>
			<g>
				<path class="st0" d="M149.62,138.65H25.38c-5.52,0-10-4.48-10-10v-18.46c0-5.52,4.48-10,10-10h124.23c5.52,0,10,4.48,10,10
					v18.46C159.62,134.18,155.14,138.65,149.62,138.65z"/>
				<path class="st2" d="M149.62,138.65H25.38c-5.52,0-10-4.48-10-10v-18.46c0-5.52,4.48-10,10-10h124.23c5.52,0,10,4.48,10,10
					v18.46C159.62,134.18,155.14,138.65,149.62,138.65z"/>
			</g>
			<g>
				<path class="st0" d="M149.62,184.81H25.38c-5.52,0-10-4.48-10-10v-18.46c0-5.52,4.48-10,10-10h124.23c5.52,0,10,4.48,10,10
					v18.46C159.62,180.33,155.14,184.81,149.62,184.81z"/>
				<path class="st2" d="M149.62,184.81H25.38c-5.52,0-10-4.48-10-10v-18.46c0-5.52,4.48-10,10-10h124.23c5.52,0,10,4.48,10,10
					v18.46C159.62,180.33,155.14,184.81,149.62,184.81z"/>
			</g>
		</g>
		<text transform="matrix(1 0 0 1 51.5293 125.2354)" class="st3 st4">include/*</text>
		<text transform="matrix(1 0 0 1 39.3243 171.9871)"><tspan x="0" y="0" class="st3 st4">s</tspan><tspan x="7.13" y="0" class="st3 st4">r</tspan><tspan x="12.83" y="0" class="st3 st4">c/include/*</tspan></text>
	</g>
	<g>
		<g>
			<g>
				<path class="st0" d="M257,63.5c-5.24,0-9.5-4.26-9.5-9.5V24c0-5.24,4.26-9.5,9.5-9.5h130c5.24,0,9.5,4.26,9.5,9.5v30
					c0,5.24-4.26,9.5-9.5,9.5H257z"/>
				<path d="M387,15c4.96,0,9,4.04,9,9v30c0,4.96-4.04,9-9,9H257c-4.96,0-9-4.04-9-9V24c0-4.96,4.04-9,9-9H387 M387,14H257
					c-5.52,0-10,4.48-10,10v30c0,5.52,4.48,10,10,10h130c5.52,0,10-4.48,10-10V24C397,18.48,392.52,14,387,14L387,14z"/>
			</g>
			<g>
				<path class="st0" d="M384.12,61.32H259.88c-5.52,0-10-4.48-10-10V26.68c0-5.52,4.48-10,10-10h124.23c5.52,0,10,4.48,10,10v24.64
					C394.12,56.84,389.64,61.32,384.12,61.32z"/>
				<path d="M384.12,16.68h-6v1h6V16.68L384.12,16.68L384.12,16.68z M372.12,16.68h-6v1h6V16.68L372.12,16.68z M360.12,16.68h-6v1h6
					V16.68L360.12,16.68z M348.12,16.68h-6v1h6V16.68L348.12,16.68z M336.12,16.68h-6v1h6V16.68L336.12,16.68z M324.12,16.68h-6v1h6
					V16.68L324.12,16.68z M312.12,16.68h-6v1h6V16.68L312.12,16.68z M300.12,16.68h-6v1h6V16.68L300.12,16.68z M288.12,16.68h-6v1h6
					V16.68L288.12,16.68z M276.12,16.68h-6v1h6V16.68L276.12,16.68z M264.12,16.68h-4.23l0,0c0,0-0.01,0-0.01,0c0,0,0,0,0,0
					c0,0-0.01,0-0.01,0c0,0,0,0,0,0c0,0-0.01,0-0.01,0c0,0,0,0,0,0c0,0-0.01,0-0.01,0c0,0,0,0,0,0c0,0-0.01,0-0.01,0c0,0,0,0,0,0
					c0,0-0.01,0-0.01,0c0,0,0,0,0,0c0,0-0.01,0-0.01,0c0,0,0,0,0,0c0,0-0.01,0-0.01,0c0,0,0,0,0,0c0,0-0.01,0-0.01,0c0,0,0,0,0,0
					c0,0-0.01,0-0.01,0c0,0,0,0,0,0c0,0-0.01,0-0.01,0c0,0,0,0,0,0c0,0-0.01,0-0.01,0c0,0,0,0,0,0c0,0-0.01,0-0.01,0c0,0,0,0,0,0
					c0,0-0.01,0-0.01,0c0,0,0,0,0,0c0,0-0.01,0-0.01,0c0,0,0,0,0,0c0,0-0.01,0-0.01,0c0,0,0,0,0,0c0,0-0.01,0-0.01,0c0,0,0,0,0,0
					c0,0-0.01,0-0.01,0c0,0,0,0,0,0c0,0-0.01,0-0.01,0c0,0,0,0,0,0c0,0-0.01,0-0.01,0c0,0,0,0,0,0c0,0-0.01,0-0.01,0c0,0,0,0,0,0
					c0,0-0.01,0-0.01,0c0,0,0,0,0,0c0,0-0.01,0-0.01,0c0,0,0,0,0,0c0,0-0.01,0-0.01,0c0,0,0,0,0,0c0,0-0.01,0-0.01,0c0,0,0,0,0,0
					c0,0-0.01,0-0.01,0c0,0,0,0,0,0c0,0-0.01,0-0.01,0c0,0,0,0-0.01,0c0,0-0.01,0-0.01,0c0,0,0,0,0,0c0,0-0.01,0-0.01,0
					c0,0,0,0-0.01,0c0,0-0.01,0-0.01,0c0,0,0,0,0,0c0,0,0,0-0.01,0c0,0-0.01,0-0.01,0c0,0,0,0-0.01,0c0,0,0,0-0.01,0
					c0,0-0.01,0-0.01,0c0,0,0,0-0.01,0c0,0,0,0-0.01,0c0,0-0.01,0-0.01,0c0,0,0,0-0.01,0c0,0-0.01,0-0.01,0c0,0,0,0-0.01,0
					c0,0,0,0-0.01,0c0,0-0.01,0-0.01,0c0,0,0,0-0.01,0c0,0,0,0-0.01,0c0,0-0.01,0-0.01,0c0,0,0,0,0,0c0,0-0.01,0-0.01,0c0,0,0,0,0,0
					c0,0,0,0-0.01,0c0,0,0,0,0,0c0,0-0.01,0-0.01,0c0,0,0,0,0,0c0,0-0.01,0-0.01,0c0,0,0,0,0,0c0,0-0.01,0-0.01,0c0,0,0,0,0,0
					c-0.01,0-0.02,0-0.02,0c0,0,0,0,0,0c0,0-0.01,0-0.01,0c0,0,0,0,0,0c-0.01,0-0.03,0-0.04,0c0,0,0,0,0,0c-0.01,0-0.01,0-0.02,0
					c0,0,0,0,0,0c-0.21,0.01-0.42,0.04-0.63,0.06c0,0,0,0,0,0c-0.01,0-0.03,0-0.04,0.01c0,0,0,0,0,0c0,0-0.01,0-0.01,0c0,0,0,0,0,0
					c0,0-0.01,0-0.01,0c0,0,0,0,0,0c0,0,0,0-0.01,0c0,0,0,0,0,0c0,0-0.01,0-0.01,0c0,0,0,0,0,0c0,0-0.01,0-0.01,0c0,0,0,0-0.01,0
					c0,0,0,0-0.01,0c0,0-0.01,0-0.01,0c0,0,0,0-0.01,0c0,0-0.01,0-0.01,0c0,0,0,0,0,0c0,0-0.01,0-0.01,0c0,0,0,0,0,0
					c0,0-0.01,0-0.01,0c0,0,0,0,0,0c0,0-0.01,0-0.01,0c0,0,0,0,0,0c0,0-0.01,0-0.01,0c0,0,0,0,0,0c0,0-0.01,0-0.01,0c0,0,0,0,0,0
					c0,0-0.01,0-0.01,0c0,0,0,0,0,0c0,0-0.01,0-0.01,0l0,0c-0.06,0.01-0.13,0.02-0.19,0.03l0.17,0.98c0.52-0.09,1.05-0.14,1.59-0.14
					h4.23V16.68L264.12,16.68z M252.87,19.55c-0.05,0.05-0.11,0.11-0.16,0.16c0,0,0,0,0,0c-0.01,0.01-0.01,0.01-0.02,0.02
					c0,0,0,0,0,0c-0.01,0.01-0.01,0.01-0.02,0.02l0,0c-0.01,0.01-0.03,0.03-0.04,0.04l0,0c-0.01,0.01-0.01,0.01-0.02,0.02
					c0,0,0,0,0,0c-0.01,0.01-0.01,0.01-0.02,0.02c0,0,0,0,0,0c-0.01,0.01-0.01,0.01-0.02,0.02c0,0,0,0,0,0c0,0-0.01,0.01-0.01,0.01
					l0,0c0,0-0.01,0.01-0.01,0.01l0,0c0,0-0.01,0.01-0.01,0.01l0,0c0,0-0.01,0.01-0.01,0.01l0,0c0,0,0,0.01-0.01,0.01c0,0,0,0,0,0
					c0,0.01-0.01,0.01-0.01,0.02c0,0,0,0,0,0c0,0.01-0.01,0.01-0.01,0.02c0,0,0,0,0,0c0,0.01-0.01,0.01-0.01,0.02c0,0,0,0,0,0
					c0,0,0,0.01-0.01,0.01c0,0,0,0,0,0c0,0,0,0.01-0.01,0.01c0,0,0,0,0,0c0,0,0,0.01-0.01,0.01l0,0c0,0,0,0.01-0.01,0.01
					c0,0,0,0,0,0c0,0,0,0.01-0.01,0.01c0,0,0,0,0,0c0,0,0,0.01-0.01,0.01l0,0c0,0,0,0.01-0.01,0.01c0,0,0,0,0,0
					c0,0.01-0.01,0.01-0.01,0.02c0,0,0,0,0,0c0,0,0,0.01-0.01,0.01c0,0,0,0,0,0c0,0,0,0-0.01,0.01c0,0,0,0,0,0c0,0,0,0.01-0.01,0.01
					c0,0,0,0,0,0c0,0,0,0-0.01,0.01c0,0,0,0,0,0c0,0,0,0-0.01,0.01c0,0,0,0,0,0c0,0,0,0-0.01,0.01c0,0,0,0,0,0c0,0,0,0.01-0.01,0.01
					c0,0,0,0,0,0c0,0,0,0-0.01,0.01c0,0,0,0,0,0c0,0,0,0-0.01,0.01c0,0,0,0,0,0c0,0,0,0-0.01,0.01c0,0,0,0,0,0c0,0,0,0-0.01,0.01
					c0,0,0,0,0,0c0,0,0,0-0.01,0.01c0,0,0,0,0,0c0,0,0,0-0.01,0.01c0,0,0,0,0,0c0,0,0,0.01-0.01,0.01c0,0,0,0,0,0c0,0,0,0-0.01,0.01
					c0,0,0,0,0,0c0,0,0,0.01-0.01,0.01c0,0,0,0,0,0c0,0,0,0-0.01,0.01c0,0,0,0,0,0c0,0,0,0.01-0.01,0.01c0,0,0,0,0,0
					c0,0,0,0-0.01,0.01c0,0,0,0,0,0c0,0,0,0.01-0.01,0.01c0,0,0,0,0,0c0,0,0,0-0.01,0.01c0,0,0,0,0,0c0,0,0,0.01-0.01,0.01
					c0,0,0,0,0,0c0,0,0,0.01-0.01,0.01c0,0,0,0,0,0c0,0,0,0-0.01,0.01c0,0,0,0,0,0c0,0,0,0.01-0.01,0.01c0,0,0,0,0,0
					c0,0,0,0-0.01,0.01c0,0,0,0,0,0c0,0,0,0.01-0.01,0.01c0,0,0,0,0,0c0,0,0,0-0.01,0.01c0,0,0,0,0,0c0,0,0,0.01-0.01,0.01
					c0,0,0,0,0,0c0,0,0,0-0.01,0.01c0,0,0,0,0,0c0,0,0,0.01-0.01,0.01c0,0,0,0,0,0c0,0,0,0-0.01,0.01c0,0,0,0,0,0
					c0,0,0,0.01-0.01,0.01c0,0,0,0,0,0c0,0,0,0.01-0.01,0.01l0,0c0,0,0,0.01-0.01,0.01c0,0,0,0,0,0c0,0,0,0.01-0.01,0.01
					c0,0,0,0,0,0c0,0,0,0-0.01,0.01c0,0,0,0,0,0c0,0,0,0.01-0.01,0.01c0,0,0,0,0,0c0,0,0,0-0.01,0.01c0,0,0,0,0,0
					c0,0,0,0.01-0.01,0.01c0,0,0,0,0,0c0,0,0,0-0.01,0.01c0,0,0,0,0,0c0,0,0,0-0.01,0.01c0,0,0,0,0,0c0,0,0,0-0.01,0.01c0,0,0,0,0,0
					c0,0,0,0.01-0.01,0.01c0,0,0,0,0,0c0,0,0,0.01-0.01,0.01c0,0,0,0,0,0c0,0,0,0.01-0.01,0.01c0,0,0,0,0,0c0,0,0,0.01-0.01,0.01
					c0,0,0,0,0,0c0,0,0,0-0.01,0.01c0,0,0,0,0,0c0,0,0,0-0.01,0.01c0,0,0,0,0,0c0,0,0,0-0.01,0.01c0,0,0,0,0,0c0,0,0,0.01-0.01,0.01
					c0,0,0,0,0,0c0,0,0,0-0.01,0.01c0,0,0,0,0,0c0,0,0,0.01-0.01,0.01c0,0,0,0,0,0c0,0,0,0-0.01,0.01c0,0,0,0,0,0
					c0,0,0,0.01-0.01,0.01c0,0,0,0,0,0c0,0.01-0.01,0.01-0.01,0.02c0,0,0,0,0,0c0,0,0,0.01-0.01,0.01c0,0,0,0,0,0c0,0,0,0-0.01,0.01
					c0,0,0,0,0,0c0,0,0,0.01-0.01,0.01c0,0,0,0,0,0c0,0,0,0,0,0.01c0,0,0,0,0,0c0,0,0,0.01-0.01,0.01c0,0,0,0,0,0c0,0,0,0,0,0.01
					c0,0,0,0,0,0c0,0,0,0.01-0.01,0.01c0,0,0,0,0,0c0,0,0,0,0,0.01c0,0,0,0,0,0c0,0,0,0.01-0.01,0.01c0,0,0,0,0,0
					c0,0,0,0.01-0.01,0.01l0,0c0,0,0,0.01-0.01,0.01c0,0,0,0,0,0c0,0,0,0.01-0.01,0.01c0,0,0,0,0,0c0,0,0,0-0.01,0.01c0,0,0,0,0,0
					c0,0,0,0.01-0.01,0.01c0,0,0,0,0,0c0,0,0,0-0.01,0.01c0,0,0,0,0,0c0,0,0,0.01-0.01,0.01c0,0,0,0,0,0c0,0,0,0-0.01,0.01
					c0,0,0,0,0,0c0,0,0,0.01-0.01,0.01c0,0,0,0,0,0c0,0,0,0.01-0.01,0.01l0,0c0,0,0,0.01-0.01,0.01c0,0,0,0,0,0
					c0,0.01-0.01,0.01-0.01,0.02c0,0,0,0,0,0c0,0,0,0.01-0.01,0.01c0,0,0,0,0,0c0,0,0,0.01-0.01,0.01c0,0,0,0,0,0
					c0,0,0,0.01-0.01,0.01c0,0,0,0,0,0c0,0,0,0.01-0.01,0.01c0,0,0,0,0,0c0,0,0,0.01-0.01,0.01c0,0,0,0,0,0c0,0,0,0.01-0.01,0.01
					c0,0,0,0,0,0c0,0,0,0.01-0.01,0.01c0,0,0,0,0,0c0,0.01-0.01,0.01-0.01,0.02c0,0,0,0,0,0c0,0,0,0.01-0.01,0.01l0,0
					c0,0,0,0.01-0.01,0.01c0,0,0,0,0,0c0,0,0,0.01-0.01,0.01l0,0c0,0,0,0.01-0.01,0.01c0,0,0,0,0,0c0,0,0,0.01-0.01,0.01
					c0,0,0,0,0,0c0,0,0,0.01-0.01,0.01c0,0,0,0,0,0c0,0,0,0.01-0.01,0.01l0,0c0,0,0,0.01-0.01,0.01l0,0c0,0,0,0.01-0.01,0.01
					c0,0,0,0,0,0c0,0.01-0.01,0.01-0.01,0.02c0,0,0,0,0,0c0,0.01-0.01,0.01-0.01,0.02c0,0,0,0,0,0c0,0.01-0.01,0.01-0.01,0.02
					c0,0,0,0,0,0c0,0.01-0.01,0.01-0.01,0.02c0,0,0,0,0,0c-0.01,0.02-0.02,0.03-0.03,0.05l0,0c0,0.01-0.01,0.01-0.01,0.02l0,0
					c-0.02,0.03-0.04,0.06-0.06,0.09l0,0c-0.01,0.01-0.02,0.03-0.03,0.04l0,0c-0.71,1.07-1.22,2.29-1.48,3.6l0.98,0.19
					c0.35-1.78,1.22-3.4,2.52-4.68L252.87,19.55L252.87,19.55z M250.88,30.74h-1v6h1V30.74L250.88,30.74z M250.88,42.74h-1v6h1
					V42.74L250.88,42.74z M251.4,54.34l-0.94,0.34c0.18,0.51,0.4,1,0.66,1.46l0,0c0,0.01,0.01,0.01,0.01,0.02l0,0
					c0,0.01,0.01,0.01,0.01,0.02l0,0c0,0.01,0.01,0.01,0.01,0.02l0,0c0,0,0,0.01,0.01,0.01l0,0c0,0,0,0.01,0.01,0.01c0,0,0,0,0,0
					c0,0,0,0.01,0.01,0.01c0,0,0,0,0,0c0,0.01,0.01,0.01,0.01,0.02c0,0,0,0,0,0c0,0.01,0.01,0.01,0.01,0.02c0,0,0,0,0,0
					c0,0,0,0.01,0.01,0.01c0,0,0,0,0,0c0,0,0,0.01,0.01,0.01c0,0,0,0,0,0c0,0,0,0.01,0.01,0.01c0,0,0,0,0,0c0,0,0,0.01,0,0.01
					c0,0,0,0,0,0c0,0,0,0.01,0.01,0.01c0,0,0,0,0,0c0,0,0,0.01,0,0.01c0,0,0,0,0,0c0,0,0,0.01,0.01,0.01c0,0,0,0,0,0
					c0,0,0,0.01,0.01,0.01l0,0c0,0,0,0.01,0.01,0.01c0,0,0,0,0,0c0,0,0,0.01,0.01,0.01c0,0,0,0,0,0c0,0,0,0,0,0.01c0,0,0,0,0,0
					c0,0,0,0.01,0,0.01c0,0,0,0,0,0c0,0,0,0.01,0,0.01c0,0,0,0,0,0c0,0,0,0.01,0.01,0.01c0,0,0,0,0,0c0,0,0,0,0,0.01c0,0,0,0,0,0
					c0,0,0,0.01,0,0.01c0,0,0,0,0,0c0,0,0,0.01,0,0.01c0,0,0,0,0,0c0,0,0,0,0,0.01c0,0,0,0,0,0c0,0,0,0.01,0,0.01c0,0,0,0,0,0
					c0,0,0,0,0,0.01c0,0,0,0,0,0c0,0,0,0.01,0,0.01c0,0,0,0,0,0c0,0,0,0,0,0.01c0,0,0,0,0,0c0,0,0,0.01,0,0.01c0,0,0,0,0,0
					c0,0,0,0,0,0.01c0,0,0,0,0,0c0,0,0,0.01,0,0.01c0,0,0,0,0,0c0,0,0,0,0,0.01c0,0,0,0,0,0c0,0,0,0,0,0.01c0,0,0,0,0,0
					c0,0,0,0,0,0.01c0,0,0,0,0,0c0,0,0,0,0,0.01c0,0,0,0,0,0c0,0,0,0,0,0.01c0,0,0,0,0,0c0,0,0,0,0,0.01c0,0,0,0,0,0c0,0,0,0,0,0.01
					c0,0,0,0,0,0c0,0,0,0,0,0.01c0,0,0,0,0,0c0,0,0,0,0,0.01c0,0,0,0,0,0c0,0,0,0,0,0.01c0,0,0,0,0,0.01c0,0,0,0,0,0c0,0,0,0,0,0
					c0,0,0,0,0,0.01c0,0,0,0,0,0c0,0,0,0,0,0c0,0,0,0,0,0c0,0,0,0,0,0.01c0,0,0,0,0,0c0,0,0,0,0,0c0,0,0,0,0,0.01c0,0,0,0,0,0.01
					c0,0,0,0,0,0c0,0,0,0,0,0c0,0,0,0,0,0.01c0,0,0,0,0,0c0,0,0,0,0,0c0,0,0,0,0,0c0,0,0,0,0,0.01c0,0,0,0,0,0c0,0,0,0,0,0
					c0,0,0,0,0,0.01s0,0,0,0.01c0,0,0,0,0,0c0,0,0,0,0,0c0,0,0,0,0,0.01c0,0,0,0,0,0c0,0,0,0,0,0c0,0,0,0,0,0c0,0,0,0,0,0.01
					c0,0,0,0,0,0c0,0,0,0,0,0c0,0,0,0.01,0.01,0.01c0,0,0,0,0,0c0,0,0,0,0,0c0,0,0,0,0,0c0,0,0,0,0,0.01c0,0,0,0,0,0c0,0,0,0,0,0
					c0,0,0,0,0,0c0,0,0,0,0,0.01c0,0,0,0,0,0c0,0,0,0,0,0.01c0,0,0,0,0,0c0,0,0,0.01,0.01,0.01c0,0,0,0,0,0c0,0,0,0.01,0.01,0.01
					c0,0,0,0,0,0c0,0,0,0,0,0c0,0,0,0,0,0c0,0,0,0.01,0.01,0.01c0,0,0,0,0,0c0,0,0,0,0,0c0,0,0,0,0,0c0,0,0,0,0,0.01c0,0,0,0,0,0
					c0,0,0,0,0,0c0,0,0,0,0,0c0,0,0,0,0,0.01c0,0,0,0,0,0c0,0,0,0,0,0c0,0,0,0,0,0.01c0,0,0,0,0,0.01c0,0,0,0,0,0c0,0,0,0,0,0.01
					c0,0,0,0,0,0c0,0,0,0,0,0c0,0,0,0,0,0c0,0,0,0.01,0.01,0.01c0,0,0,0,0,0c0,0,0,0,0,0c0,0,0,0,0,0c0,0,0,0.01,0.01,0.01
					c0,0,0,0,0,0c0,0,0,0,0,0.01c0,0,0,0,0,0c0,0,0,0.01,0.01,0.01c0,0,0,0,0,0c0,0.01,0.01,0.01,0.01,0.02c0,0,0,0,0,0
					c0,0.01,0.01,0.01,0.01,0.02c0,0,0,0,0,0c0,0,0,0.01,0.01,0.01c0,0,0,0,0,0c0,0,0,0,0,0.01c0,0,0,0,0,0c0,0,0,0.01,0.01,0.01
					c0,0,0,0,0,0c0,0,0,0,0,0.01c0,0,0,0,0,0c0,0,0,0.01,0.01,0.01c0,0,0,0,0,0c0,0.01,0.01,0.01,0.01,0.02c0,0,0,0,0,0
					c0,0.01,0.01,0.01,0.01,0.02c0,0,0,0,0,0c0,0,0,0.01,0.01,0.01c0,0,0,0,0,0c0,0,0,0,0,0.01c0,0,0,0,0,0c0,0,0,0.01,0.01,0.01
					c0,0,0,0,0,0c0,0,0,0,0,0.01c0,0,0,0,0,0c0,0,0.01,0.01,0.01,0.01c0,0,0,0,0,0c0,0.01,0.01,0.01,0.01,0.02c0,0,0,0,0,0
					c0,0.01,0.01,0.01,0.01,0.02c0,0,0,0,0,0c0,0,0.01,0.01,0.01,0.01c0,0,0,0,0,0c0,0,0,0,0,0.01c0,0,0,0,0,0
					c0,0,0.01,0.01,0.01,0.01c0,0,0,0,0,0c0,0.01,0.01,0.01,0.01,0.02c0,0,0,0,0,0c0,0.01,0.01,0.01,0.01,0.02c0,0,0,0,0,0
					c0,0.01,0.01,0.01,0.01,0.02c0,0,0,0,0,0c0,0,0.01,0.01,0.01,0.01c0,0,0,0,0,0c0,0,0,0,0,0.01c0,0,0,0,0,0
					c0.01,0.01,0.01,0.02,0.02,0.03c0,0,0,0,0,0c0,0.01,0.01,0.01,0.01,0.02c0,0,0,0,0,0c0,0.01,0.01,0.01,0.01,0.02c0,0,0,0,0,0
					c0,0.01,0.01,0.01,0.01,0.02c0,0,0,0,0,0c0,0,0.01,0.01,0.01,0.01c0,0,0,0,0,0c0,0.01,0.01,0.01,0.01,0.02c0,0,0,0,0,0
					c0,0.01,0.01,0.01,0.01,0.02c0,0,0,0,0,0c0,0.01,0.01,0.01,0.01,0.02c0,0,0,0,0,0c0,0.01,0.01,0.01,0.01,0.02c0,0,0,0,0,0
					c0,0,0.01,0.01,0.01,0.01c0,0,0,0,0,0c0,0,0,0,0,0.01c0,0,0,0,0,0c0,0,0,0.01,0.01,0.01c0,0,0,0,0,0c0,0.01,0.01,0.01,0.01,0.02
					c0,0,0,0,0,0c0,0.01,0.01,0.01,0.01,0.02c0,0,0,0,0,0c0,0,0,0.01,0.01,0.01c0,0,0,0,0,0c0,0,0,0,0,0.01c0,0,0,0,0,0
					c0,0,0,0.01,0.01,0.01c0,0,0,0,0,0c0,0,0,0,0,0.01c0,0,0,0,0,0c0,0,0,0.01,0.01,0.01c0,0,0,0,0,0c0,0.01,0.01,0.01,0.01,0.02
					c0,0,0,0,0,0c0,0.01,0.01,0.01,0.01,0.02c0,0,0,0,0,0c0,0,0.01,0.01,0.01,0.01c0,0,0,0,0,0c0,0,0,0,0,0.01c0,0,0,0,0,0
					c0,0,0.01,0.01,0.01,0.01c0,0,0,0,0,0c0,0,0,0,0,0c0,0,0,0,0,0c0,0,0,0.01,0.01,0.01c0,0,0,0,0,0c0,0,0,0,0,0c0,0,0,0,0,0
					c0,0,0,0.01,0.01,0.01c0,0,0,0,0,0c0,0,0.01,0.01,0.01,0.02c0,0,0,0,0,0c0,0,0,0.01,0.01,0.01c0,0,0,0,0,0c0,0,0,0,0,0
					c0,0,0,0,0,0c0,0,0,0.01,0.01,0.01c0,0,0,0,0,0c0,0,0,0,0,0c0,0,0,0,0,0c0,0,0,0.01,0.01,0.01c0,0,0,0,0,0
					c0,0.01,0.01,0.01,0.01,0.02c0,0,0,0,0,0c0,0,0,0.01,0.01,0.01c0,0,0,0,0,0c0,0,0,0,0,0c0,0,0,0,0,0c0,0,0,0.01,0.01,0.01
					c0,0,0,0,0,0c0,0,0,0,0,0c0,0,0,0,0,0c0,0,0,0.01,0.01,0.01c0,0,0,0,0,0c0,0,0,0,0,0c0,0,0,0,0,0c0,0,0,0.01,0.01,0.01
					c0,0,0,0,0,0c0,0,0,0,0,0c0,0,0,0,0,0c0,0,0,0.01,0.01,0.01c0,0,0,0,0,0c0,0,0.01,0.01,0.01,0.01c0,0,0,0,0,0c0,0,0,0,0,0
					c0,0,0,0,0,0c0,0,0,0,0.01,0.01c0,0,0,0,0,0c0,0,0,0,0,0c0,0,0,0,0,0c0,0,0,0.01,0.01,0.01c0,0,0,0,0,0c0,0,0,0,0,0c0,0,0,0,0,0
					c0,0,0,0.01,0.01,0.01c0,0,0,0,0,0c0,0,0,0,0,0c0,0,0,0,0,0c0,0,0,0,0.01,0.01c0,0,0,0,0,0c0,0,0,0,0,0c0,0,0,0,0.01,0.01
					c0,0,0,0,0,0c0,0,0,0,0,0c0,0,0,0,0,0.01c0,0,0,0,0,0c0,0,0,0,0,0c0,0,0,0,0,0c0,0,0,0,0.01,0.01c0,0,0,0,0,0c0,0,0,0,0,0
					c0,0,0,0,0,0c0,0,0,0,0,0.01c0,0,0,0,0,0c0,0,0,0,0,0c0,0,0,0,0.01,0.01c0,0,0,0,0,0c0,0,0,0,0,0c0,0,0,0,0,0c0,0,0,0,0.01,0.01
					c0,0,0,0,0,0c0,0,0,0,0,0c0,0,0,0,0,0s0,0,0,0c0,0,0,0,0,0c0,0,0,0,0,0c0,0,0,0,0,0c0,0,0,0,0.01,0.01c0,0,0,0,0,0
					c0,0,0,0,0.01,0.01c0,0,0,0,0,0c0,0,0,0,0,0c0,0,0,0,0,0c0,0,0,0,0.01,0.01c0,0,0,0,0,0c0,0,0,0,0,0c0,0,0,0,0,0
					c0,0,0,0,0.01,0.01c0,0,0,0,0,0c0,0,0,0,0,0c0,0,0,0,0,0c0,0,0,0,0.01,0.01c0,0,0,0,0,0c0,0,0,0,0,0.01c0,0,0,0,0,0
					c0,0,0,0,0.01,0.01c0,0,0,0,0,0c0,0,0,0,0.01,0.01c0,0,0,0,0,0c0,0,0,0,0,0.01c0,0,0,0,0,0c0,0,0,0,0.01,0.01c0,0,0,0,0,0
					c0,0,0,0,0,0c0,0,0,0,0,0c0,0,0,0,0.01,0.01c0,0,0,0,0,0c0,0,0,0,0,0c0,0,0,0,0,0c0,0,0,0,0.01,0.01c0,0,0,0,0,0
					c0,0,0,0,0.01,0.01c0,0,0,0,0,0c0,0,0,0,0.01,0.01c0,0,0,0,0,0c0,0,0,0,0.01,0.01c0,0,0,0,0,0c0,0,0,0,0.01,0.01c0,0,0,0,0,0
					c0,0,0,0,0.01,0.01c0,0,0,0,0,0c0,0,0,0,0.01,0.01c0,0,0,0,0,0c0,0,0,0,0.01,0.01c0,0,0,0,0,0c0,0,0,0,0.01,0.01c0,0,0,0,0,0
					c0,0,0,0,0.01,0.01c0,0,0,0,0,0c0,0,0,0,0.01,0.01c0,0,0,0,0,0c0,0,0,0,0.01,0.01c0,0,0,0,0,0c0,0,0,0,0.01,0.01c0,0,0,0,0,0
					c0,0,0,0,0.01,0.01c0,0,0,0,0,0c0,0,0,0,0.01,0.01c0,0,0,0,0,0c0,0,0,0,0.01,0.01c0,0,0,0,0,0c0,0,0,0,0.01,0.01c0,0,0,0,0,0
					c0,0,0,0,0.01,0.01c0,0,0,0,0,0c0,0,0,0,0.01,0.01c0,0,0,0,0,0c0,0.01,0.01,0.01,0.01,0.02c0,0,0,0,0,0
					c0.01,0.01,0.01,0.01,0.02,0.02c0,0,0,0,0,0c0,0,0.01,0.01,0.01,0.01c0,0,0,0,0,0c0,0,0.01,0.01,0.01,0.01l0,0
					c0,0,0.01,0.01,0.01,0.01c0,0,0,0,0,0c0,0,0.01,0.01,0.01,0.01l0,0c0,0,0.01,0.01,0.01,0.01c0,0,0,0,0,0
					c0.01,0.01,0.01,0.01,0.02,0.02c0,0,0,0,0,0c0,0,0.01,0.01,0.01,0.01c0,0,0,0,0,0c0,0,0.01,0.01,0.01,0.01c0,0,0,0,0,0
					c0,0,0.01,0.01,0.01,0.01l0,0c0,0,0.01,0.01,0.01,0.01l0,0c0,0,0.01,0.01,0.01,0.01c0,0,0,0,0,0c0.01,0.01,0.01,0.01,0.02,0.02
					c0,0,0,0,0,0c0.01,0.01,0.01,0.01,0.02,0.02c0,0,0,0,0,0c0.01,0.01,0.01,0.01,0.02,0.02l0,0c0.33,0.32,0.68,0.61,1.05,0.88
					l0.59-0.81C253.11,57.52,252.01,56.05,251.4,54.34L251.4,54.34z M259.62,60.32l-0.03,1c0.08,0,0.16,0,0.25,0c0,0,0,0,0,0
					c0,0,0,0,0.01,0c0,0,0,0,0,0c0,0,0,0,0.01,0c0,0,0,0,0,0c0,0,0,0,0.01,0c0,0,0,0,0,0c0,0,0,0,0.01,0c0,0,0,0,0,0
					c0,0,0.01,0,0.01,0h5.71v-1h-5.71C259.8,60.32,259.71,60.32,259.62,60.32L259.62,60.32z M277.59,60.32h-6v1h6V60.32
					L277.59,60.32z M289.59,60.32h-6v1h6V60.32L289.59,60.32z M301.59,60.32h-6v1h6V60.32L301.59,60.32z M313.59,60.32h-6v1h6V60.32
					L313.59,60.32z M325.59,60.32h-6v1h6V60.32L325.59,60.32z M337.59,60.32h-6v1h6V60.32L337.59,60.32z M349.59,60.32h-6v1h6V60.32
					L349.59,60.32z M361.59,60.32h-6v1h6V60.32L361.59,60.32z M373.59,60.32h-6v1h6V60.32L373.59,60.32z M385.44,60.22
					c-0.44,0.06-0.88,0.1-1.33,0.1h-4.52v1h4.52c0,0,0.01,0,0.01,0c0,0,0,0,0,0c0,0,0.01,0,0.01,0c0,0,0,0,0,0c0,0,0.01,0,0.01,0
					c0,0,0,0,0,0c0,0,0.01,0,0.01,0c0,0,0,0,0,0c0,0,0.01,0,0.01,0c0,0,0,0,0,0c0,0,0.01,0,0.01,0c0,0,0,0,0,0c0,0,0.01,0,0.01,0
					c0,0,0,0,0,0c0,0,0.01,0,0.01,0c0,0,0,0,0,0c0,0,0.01,0,0.01,0h0c0,0,0.01,0,0.01,0c0,0,0,0,0,0c0.01,0,0.01,0,0.02,0
					c0,0,0,0,0,0c0,0,0.01,0,0.01,0c0,0,0,0,0,0c0,0,0.01,0,0.01,0c0,0,0,0,0,0c0,0,0.01,0,0.01,0c0,0,0,0,0,0c0,0,0.01,0,0.01,0
					c0,0,0,0,0,0c0,0,0.01,0,0.01,0c0,0,0,0,0,0c0.01,0,0.02,0,0.02,0l0,0c0.3-0.01,0.6-0.03,0.9-0.06c0,0,0,0,0,0
					c0.01,0,0.01,0,0.02,0c0,0,0,0,0,0c0,0,0.01,0,0.01,0c0,0,0,0,0,0c0,0,0.01,0,0.01,0c0,0,0,0,0,0c0,0,0,0,0.01,0c0,0,0,0,0,0
					c0,0,0.01,0,0.01,0c0,0,0,0,0,0c0,0,0,0,0.01,0c0,0,0,0,0.01,0c0,0,0,0,0,0c0,0,0.01,0,0.01,0c0,0,0,0,0,0c0,0,0,0,0.01,0
					c0,0,0,0,0,0c0.08-0.01,0.16-0.02,0.24-0.03L385.44,60.22L385.44,60.22z M392.89,53.32c-0.4,1.77-1.32,3.36-2.66,4.61l0.68,0.73
					c0.35-0.33,0.68-0.68,0.98-1.05c0,0,0,0,0,0c0-0.01,0.01-0.01,0.01-0.02c0,0,0,0,0,0c0-0.01,0.01-0.01,0.01-0.02c0,0,0,0,0,0
					c0-0.01,0.01-0.01,0.01-0.02c0,0,0,0,0,0c0-0.01,0.01-0.01,0.01-0.02c0,0,0,0,0,0c0,0,0-0.01,0.01-0.01l0,0
					c0,0,0-0.01,0.01-0.01c0,0,0,0,0,0c0,0,0-0.01,0.01-0.01l0,0c0-0.01,0.01-0.01,0.01-0.02c0,0,0,0,0,0
					c0-0.01,0.01-0.01,0.01-0.02c0,0,0,0,0,0c0,0,0-0.01,0.01-0.01l0,0c0,0,0-0.01,0.01-0.01c0,0,0,0,0,0c0,0,0-0.01,0.01-0.01
					c0,0,0,0,0,0c0,0,0-0.01,0.01-0.01c0,0,0,0,0,0c0,0,0-0.01,0.01-0.01c0,0,0,0,0,0c0,0,0,0,0.01-0.01c0,0,0,0,0,0
					c0,0,0-0.01,0.01-0.01c0,0,0,0,0,0c0,0,0-0.01,0.01-0.01l0,0c0,0,0-0.01,0.01-0.01c0,0,0,0,0,0c0-0.01,0.01-0.01,0.01-0.02
					c0,0,0,0,0,0c0,0,0-0.01,0.01-0.01c0,0,0,0,0,0c0,0,0-0.01,0.01-0.01c0,0,0,0,0,0c0,0,0-0.01,0.01-0.01c0,0,0,0,0,0
					c0,0,0-0.01,0.01-0.01c0,0,0,0,0,0c0,0,0-0.01,0.01-0.01c0,0,0,0,0,0c0,0,0-0.01,0.01-0.01c0,0,0,0,0,0c0,0,0-0.01,0.01-0.01
					c0,0,0,0,0,0c0,0,0-0.01,0.01-0.01c0,0,0,0,0,0c0,0,0-0.01,0.01-0.01c0,0,0,0,0,0c0,0,0-0.01,0.01-0.01c0,0,0,0,0,0
					c0,0,0,0,0.01-0.01c0,0,0,0,0,0c0,0,0-0.01,0.01-0.01c0,0,0,0,0,0c0,0,0,0,0.01-0.01c0,0,0,0,0,0c0,0,0-0.01,0.01-0.01
					c0,0,0,0,0,0c0,0,0,0,0.01-0.01c0,0,0,0,0,0c0,0,0-0.01,0.01-0.01c0,0,0,0,0,0c0,0,0,0,0.01-0.01c0,0,0,0,0,0
					c0,0,0-0.01,0.01-0.01c0,0,0,0,0,0c0,0,0,0,0.01-0.01c0,0,0,0,0,0c0,0,0-0.01,0.01-0.01c0,0,0,0,0,0c0,0,0-0.01,0.01-0.01
					c0,0,0,0,0,0c0,0,0-0.01,0.01-0.01c0,0,0,0,0,0c0,0,0-0.01,0.01-0.01c0,0,0,0,0,0c0,0,0,0,0.01-0.01c0,0,0,0,0,0
					c0,0,0-0.01,0.01-0.01c0,0,0,0,0,0c0,0,0,0,0.01-0.01c0,0,0,0,0,0c0,0,0-0.01,0.01-0.01c0,0,0,0,0,0c0,0,0-0.01,0.01-0.01
					c0,0,0,0,0,0c0,0,0-0.01,0.01-0.01c0,0,0,0,0,0c0,0,0-0.01,0.01-0.01c0,0,0,0,0,0c0,0,0-0.01,0.01-0.01c0,0,0,0,0,0
					c0,0,0-0.01,0.01-0.01c0,0,0,0,0,0c0,0,0-0.01,0.01-0.01c0,0,0,0,0,0c0,0,0-0.01,0.01-0.01c0,0,0,0,0,0c0,0,0,0,0-0.01
					c0,0,0,0,0,0c0,0,0-0.01,0.01-0.01c0,0,0,0,0,0c0,0,0,0,0-0.01c0,0,0,0,0,0c0,0,0-0.01,0.01-0.01c0,0,0,0,0,0c0,0,0,0,0-0.01
					c0,0,0,0,0,0c0,0,0-0.01,0.01-0.01c0,0,0,0,0,0c0,0,0,0,0.01-0.01c0,0,0,0,0,0c0,0,0,0,0.01-0.01c0,0,0,0,0,0
					c0,0,0-0.01,0.01-0.01c0,0,0,0,0,0c0,0,0,0,0.01-0.01c0,0,0,0,0,0c0,0,0-0.01,0.01-0.01c0,0,0,0,0,0c0,0,0-0.01,0.01-0.01
					c0,0,0,0,0,0c0,0,0-0.01,0.01-0.01c0,0,0,0,0,0c0,0,0-0.01,0.01-0.01c0,0,0,0,0,0c0,0,0-0.01,0.01-0.01c0,0,0,0,0,0
					c0,0,0-0.01,0.01-0.01c0,0,0,0,0,0c0,0,0-0.01,0.01-0.01c0,0,0,0,0,0c0,0,0-0.01,0.01-0.01l0,0c0,0,0-0.01,0.01-0.01
					c0,0,0,0,0,0c0,0,0-0.01,0.01-0.01c0,0,0,0,0,0c0,0,0-0.01,0.01-0.01c0,0,0,0,0,0c0,0,0-0.01,0.01-0.01c0,0,0,0,0,0
					c0,0,0,0,0-0.01c0,0,0,0,0,0c0,0,0-0.01,0.01-0.01c0,0,0,0,0,0c0,0,0-0.01,0.01-0.01c0,0,0,0,0,0c0,0,0-0.01,0.01-0.01
					c0,0,0,0,0,0c0,0,0-0.01,0.01-0.01c0,0,0,0,0,0c0,0,0-0.01,0.01-0.01c0,0,0,0,0,0c0,0,0-0.01,0.01-0.01l0,0
					c0,0,0-0.01,0.01-0.01c0,0,0,0,0,0c0,0,0-0.01,0.01-0.01c0,0,0,0,0,0c0,0,0-0.01,0.01-0.01c0,0,0,0,0,0c0,0,0-0.01,0.01-0.01
					c0,0,0,0,0,0c0,0,0-0.01,0.01-0.01c0,0,0,0,0,0c0,0,0-0.01,0.01-0.01c0,0,0,0,0,0c0,0,0-0.01,0.01-0.01c0,0,0,0,0,0
					c0,0,0-0.01,0.01-0.01c0,0,0,0,0,0c0,0,0-0.01,0.01-0.01c0,0,0,0,0,0c0,0,0-0.01,0.01-0.01c0,0,0,0,0,0c0,0,0-0.01,0.01-0.01
					c0,0,0,0,0,0c0,0,0-0.01,0.01-0.01c0,0,0,0,0,0c0,0,0-0.01,0.01-0.01c0,0,0,0,0,0c0,0,0-0.01,0.01-0.01c0,0,0,0,0,0
					c0,0,0-0.01,0.01-0.01c0,0,0,0,0,0c0,0,0-0.01,0.01-0.01c0,0,0,0,0,0c0,0,0-0.01,0.01-0.01c0,0,0,0,0,0c0,0,0-0.01,0.01-0.01
					c0,0,0,0,0,0c0,0,0-0.01,0.01-0.01c0,0,0,0,0,0c0-0.01,0.01-0.01,0.01-0.02c0,0,0,0,0,0c0-0.01,0.01-0.01,0.01-0.02c0,0,0,0,0,0
					c0-0.01,0.01-0.01,0.01-0.02c0,0,0,0,0,0c0,0,0-0.01,0.01-0.01l0,0c0,0,0-0.01,0.01-0.01c0,0,0,0,0,0c0,0,0-0.01,0.01-0.01l0,0
					c0-0.01,0.01-0.01,0.01-0.02c0,0,0,0,0,0c0-0.01,0.01-0.01,0.01-0.02c0,0,0,0,0,0c0-0.01,0.01-0.01,0.01-0.02l0,0
					c0,0,0-0.01,0.01-0.01c0,0,0,0,0,0c0,0,0-0.01,0.01-0.01c0,0,0,0,0,0c0,0,0-0.01,0.01-0.01l0,0c0,0,0-0.01,0.01-0.01l0,0
					c0,0,0-0.01,0.01-0.01c0,0,0,0,0,0c0-0.01,0.01-0.01,0.01-0.02c0,0,0,0,0,0c0-0.01,0.01-0.01,0.01-0.02c0,0,0,0,0,0
					c0-0.01,0.01-0.01,0.01-0.02c0,0,0,0,0,0c0.01-0.01,0.01-0.02,0.02-0.03v0c0.01-0.01,0.02-0.03,0.02-0.04l0,0
					c0-0.01,0.01-0.01,0.01-0.02l0,0c0.47-0.83,0.82-1.74,1.04-2.69L392.89,53.32L392.89,53.32z M394.12,41.56h-1v6h1V41.56
					L394.12,41.56z M394.12,29.56h-1v6h1V29.56L394.12,29.56z M390.24,18.77l-0.61,0.79c1.44,1.12,2.5,2.62,3.06,4.35l0.95-0.31
					c0,0,0,0,0,0c0,0,0-0.01,0-0.01c0,0,0,0,0,0c0,0,0,0,0-0.01c0,0,0,0,0,0c0,0,0-0.01,0-0.01c0,0,0,0,0,0c0,0,0,0,0-0.01
					c0,0,0,0,0-0.01c0,0,0,0,0-0.01c0,0,0,0,0,0c0,0,0,0,0,0c0,0,0-0.01,0-0.01c0,0,0,0,0,0c0,0,0,0,0-0.01c0,0,0,0,0,0
					c0,0,0-0.01,0-0.01c0,0,0,0,0,0c0,0,0,0,0-0.01c0,0,0,0,0,0c0,0,0-0.01,0-0.01c0,0,0,0,0,0c0,0,0,0,0-0.01c0,0,0,0,0-0.01
					c0,0,0,0,0-0.01c0,0,0,0,0,0c0,0,0-0.01,0-0.01c0,0,0,0,0,0c0,0,0,0,0-0.01c0,0,0,0,0,0c0,0,0-0.01,0-0.01c0,0,0,0,0,0
					c0,0,0,0,0-0.01c0,0,0,0,0,0c0,0,0-0.01,0-0.01c0,0,0,0,0,0c0,0,0,0,0-0.01l0,0c0,0,0-0.01,0-0.01c0,0,0,0,0,0
					c0-0.01,0-0.01-0.01-0.02c0,0,0,0,0,0c0-0.01,0-0.01-0.01-0.02c0,0,0,0,0,0C392.9,21.52,391.74,19.93,390.24,18.77L390.24,18.77
					z M384.12,16.68v1c0.18,0,0.35,0.01,0.53,0.02l0.06-1c0,0-0.01,0-0.01,0c0,0,0,0,0,0c0,0,0,0-0.01,0c0,0,0,0,0,0c0,0,0,0,0,0
					c0,0,0,0,0,0c0,0,0,0,0,0c0,0,0,0-0.01,0c0,0,0,0,0,0c0,0,0,0-0.01,0c0,0,0,0,0,0c-0.13-0.01-0.25-0.01-0.38-0.01c0,0,0,0,0,0
					c0,0,0,0-0.01,0c0,0,0,0,0,0c-0.01,0-0.03,0-0.04,0c0,0,0,0,0,0c0,0,0,0-0.01,0c0,0,0,0,0,0c0,0,0,0-0.01,0c0,0,0,0,0,0
					c0,0,0,0-0.01,0c0,0,0,0,0,0c0,0,0,0-0.01,0c0,0,0,0,0,0c0,0,0,0-0.01,0c0,0,0,0,0,0c0,0-0.01,0-0.01,0c0,0,0,0,0,0c0,0,0,0,0,0
					c0,0,0,0,0,0c0,0,0,0,0,0c0,0,0,0,0,0c0,0,0,0,0,0c0,0,0,0,0,0c0,0,0,0,0,0c0,0,0,0,0,0c0,0,0,0,0,0c0,0,0,0-0.01,0
					C384.13,16.68,384.13,16.68,384.12,16.68C384.12,16.68,384.12,16.68,384.12,16.68L384.12,16.68L384.12,16.68z"/>
			</g>
		</g>
		<text transform="matrix(1 0 0 1 284.2067 44.9871)"><tspan x="0" y="0" class="st3 st4">s</tspan><tspan x="7.13" y="0" class="st3 st4">r</tspan><tspan x="12.83" y="0" class="st3 st4">c/impl/*</tspan></text>
	</g>
	<g>
		<path class="st1" d="M387.5,162.5h-130c-5.52,0-10-4.48-10-10v-20c0-5.52,4.48-10,10-10h130c5.52,0,10,4.48,10,10v20
			C397.5,158.02,393.02,162.5,387.5,162.5z"/>
		<text transform="matrix(1 0 0 1 254.2067 148.3989)"><tspan x="0" y="0" class="st3 st4">s</tspan><tspan x="7.13" y="0" class="st3 st4">r</tspan><tspan x="12.83" y="0" class="st3 st4">c/impl/</tspan><tspan x="66.96" y="0" class="st3 st4">r</tspan><tspan x="72.67" y="0" class="st3 st4">e</tspan><tspan x="81.68" y="0" class="st3 st4">g</tspan><tspan x="91.64" y="0" class="st3 st4">is</tspan><tspan x="102.98" y="0" class="st3 st4">t</tspan><tspan x="108.83" y="0" class="st3 st4">e</tspan><tspan x="117.84" y="0" class="st3 st4">r</tspan><tspan x="122.78" y="0" class="st3 st4">.h</tspan></text>
	</g>
	<g>
		<path class="st5" d="M386.5,260.5h-130c-5.52,0-10-4.48-10-10v-20c0-5.52,4.48-10,10-10h130c5.52,0,10,4.48,10,10v20
			C396.5,256.02,392.02,260.5,386.5,260.5z"/>
		<text transform="matrix(1 0 0 1 271.2067 246.3989)"><tspan x="0" y="0" class="st3 st4">s</tspan><tspan x="7.13" y="0" class="st3 st4">r</tspan><tspan x="12.83" y="0" class="st3 st4">c/p</tspan><tspan x="37.31" y="0" class="st3 st4">a</tspan><tspan x="45.92" y="0" class="st3 st4">t</tspan><tspan x="51.77" y="0" class="st3 st4">omi</tspan><tspan x="80.87" y="0" class="st3 st4">c</tspan><tspan x="88.76" y="0" class="st3 st4">.c</tspan></text>
	</g>
	<g>
		<g>
			<path class="st6" d="M247.5,37.12c-30.73,0-84.99,5.01-135,40.38c-7.56,5.35-14.38,10.93-20.51,16.57"/>
			<g>
				<polygon points="91.45,90.62 85.59,100.19 95.45,94.84 				"/>
			</g>
		</g>
	</g>
	<g>
		<path d="M322,64c0,59,0,59,0,59"/>
		<g>
			<path class="st7" d="M322,64c0,27.64,0,42.34,0,50.14"/>
			<g>
				<polygon points="319.09,112.16 322,123 324.91,112.16 				"/>
			</g>
		</g>
	</g>
	<g>
		<path d="M322.5,163c0,58,0,58,0,58"/>
		<g>
			<path class="st7" d="M322.5,163c0,27,0,41.43,0,49.15"/>
			<g>
				<polygon points="319.59,210.16 322.5,221 325.41,210.16 				"/>
			</g>
		</g>
	</g>
	<g>
		<text transform="matrix(1 0 0 1 129.2056 40.3047)"><tspan x="0" y="0" class="st3 st8">i</tspan><tspan x="3.28" y="0" class="st3 st8">d</tspan><tspan x="11.03" y="0" class="st3 st8">.h</tspan></text>
		<path class="st7" d="M145.5,50.5h-10c-5.52,0-10-4.48-10-10v-10c0-5.52,4.48-10,10-10h10c5.52,0,10,4.48,10,10v10
			C155.5,46.02,151.02,50.5,145.5,50.5z"/>
	</g>
	<g>
		<path class="st0" d="M247.5,142.5c-85,0-85,0-85,0"/>
		<g>
			<path class="st7" d="M238.64,142.5c-76.14,0-76.14,0-76.14,0"/>
			<g>
				<polygon points="236.66,139.59 247.5,142.5 236.66,145.41 				"/>
			</g>
		</g>
	</g>
	<g>
		<path class="st0" d="M257,64c-14.59,18.77-29.38,28.79-40.5,34.5c-22.24,11.43-53.77,17.95-54,18.02l0,0"/>
		<g>
			<path class="st7" d="M251.36,70.83c-12.7,14.45-25.17,22.69-34.86,27.67c-22.24,11.43-53.77,17.95-54,18.02"/>
			<g>
				<polygon points="247.82,70.45 257,64 252.27,74.18 				"/>
			</g>
		</g>
	</g>
	<g>
		<path class="st0" d="M256.5,220.5c-8.67-10.72-24.45-27.34-49-40c-17.35-8.95-33.37-12.98-45-14.92"/>
		<g>
			<path class="st7" d="M250.73,213.77c-9.26-10.2-23.38-23.03-43.23-33.27c-17.35-8.95-33.37-12.98-45-14.92"/>
			<g>
				<polygon points="251.59,210.41 256.5,220.5 247.2,214.21 				"/>
			</g>
		</g>
	</g>
</g>
</svg>
